<svg width="200" height="45" viewBox="0 0 922 181" fill="none" xmlns="http://www.w3.org/2000/svg">
<path d="M213.104 177.447C214.662 177.447 216.118 177.16 217.472 176.585C218.846 175.991 219.974 175.119 220.855 173.971C221.758 172.802 222.271 171.376 222.394 169.695H225.9C225.798 171.807 225.152 173.694 223.962 175.355C222.793 176.996 221.255 178.288 219.348 179.231C217.461 180.154 215.38 180.615 213.104 180.615C210.786 180.615 208.735 180.195 206.951 179.354C205.188 178.513 203.711 177.344 202.521 175.847C201.332 174.33 200.43 172.566 199.814 170.556C199.22 168.526 198.922 166.342 198.922 164.004V162.712C198.922 160.374 199.22 158.2 199.814 156.19C200.43 154.16 201.332 152.396 202.521 150.899C203.711 149.382 205.188 148.203 206.951 147.362C208.715 146.521 210.755 146.101 213.073 146.101C215.452 146.101 217.584 146.583 219.471 147.546C221.378 148.51 222.896 149.874 224.024 151.638C225.172 153.401 225.798 155.493 225.9 157.913H222.394C222.291 156.129 221.819 154.591 220.979 153.299C220.138 152.007 219.03 151.012 217.656 150.315C216.282 149.618 214.754 149.269 213.073 149.269C211.186 149.269 209.576 149.638 208.243 150.376C206.91 151.094 205.823 152.089 204.982 153.36C204.162 154.611 203.557 156.047 203.167 157.667C202.778 159.267 202.583 160.948 202.583 162.712V164.004C202.583 165.788 202.768 167.49 203.137 169.11C203.526 170.71 204.131 172.135 204.952 173.386C205.792 174.637 206.879 175.632 208.212 176.37C209.566 177.088 211.196 177.447 213.104 177.447ZM231.284 163.881V162.866C231.284 160.446 231.632 158.21 232.33 156.16C233.027 154.109 234.021 152.335 235.313 150.838C236.626 149.341 238.195 148.182 240.02 147.362C241.845 146.521 243.875 146.101 246.111 146.101C248.367 146.101 250.407 146.521 252.232 147.362C254.058 148.182 255.626 149.341 256.939 150.838C258.251 152.335 259.256 154.109 259.954 156.16C260.651 158.21 261 160.446 261 162.866V163.881C261 166.301 260.651 168.536 259.954 170.587C259.256 172.617 258.251 174.381 256.939 175.878C255.647 177.375 254.088 178.544 252.263 179.385C250.438 180.205 248.408 180.615 246.172 180.615C243.917 180.615 241.876 180.205 240.051 179.385C238.226 178.544 236.657 177.375 235.344 175.878C234.032 174.381 233.027 172.617 232.33 170.587C231.632 168.536 231.284 166.301 231.284 163.881ZM234.944 162.866V163.881C234.944 165.706 235.19 167.439 235.683 169.08C236.175 170.7 236.893 172.146 237.836 173.417C238.779 174.668 239.948 175.652 241.343 176.37C242.737 177.088 244.347 177.447 246.172 177.447C247.977 177.447 249.566 177.088 250.94 176.37C252.335 175.652 253.504 174.668 254.447 173.417C255.391 172.146 256.098 170.7 256.57 169.08C257.062 167.439 257.308 165.706 257.308 163.881V162.866C257.308 161.061 257.062 159.349 256.57 157.729C256.098 156.108 255.38 154.663 254.417 153.391C253.473 152.12 252.304 151.115 250.91 150.376C249.515 149.638 247.916 149.269 246.111 149.269C244.306 149.269 242.707 149.638 241.312 150.376C239.938 151.115 238.769 152.12 237.805 153.391C236.862 154.663 236.144 156.108 235.652 157.729C235.18 159.349 234.944 161.061 234.944 162.866ZM272.289 153.822V180H268.628V146.716H272.135L272.289 153.822ZM271.458 161.297L269.828 160.374C269.951 158.405 270.351 156.56 271.028 154.837C271.705 153.114 272.617 151.597 273.766 150.284C274.935 148.972 276.298 147.946 277.857 147.208C279.436 146.47 281.179 146.101 283.086 146.101C284.748 146.101 286.234 146.326 287.547 146.777C288.859 147.229 289.977 147.946 290.9 148.931C291.823 149.915 292.52 151.176 292.992 152.714C293.484 154.252 293.73 156.129 293.73 158.344V180H290.039V158.313C290.039 156.016 289.721 154.222 289.085 152.93C288.449 151.617 287.547 150.684 286.378 150.13C285.209 149.577 283.825 149.3 282.225 149.3C280.461 149.3 278.913 149.689 277.58 150.469C276.268 151.228 275.16 152.222 274.258 153.453C273.376 154.663 272.699 155.965 272.228 157.359C271.756 158.733 271.5 160.046 271.458 161.297ZM323.2 171.51C323.2 170.607 322.974 169.715 322.523 168.833C322.072 167.952 321.2 167.142 319.908 166.403C318.637 165.665 316.76 165.04 314.279 164.527C312.433 164.117 310.782 163.655 309.326 163.143C307.891 162.63 306.681 162.015 305.696 161.297C304.712 160.579 303.963 159.718 303.451 158.713C302.938 157.708 302.682 156.519 302.682 155.145C302.682 153.914 302.948 152.755 303.481 151.668C304.035 150.561 304.814 149.597 305.819 148.777C306.845 147.936 308.075 147.28 309.511 146.808C310.967 146.336 312.597 146.101 314.402 146.101C316.965 146.101 319.16 146.542 320.985 147.423C322.831 148.285 324.235 149.464 325.199 150.961C326.184 152.458 326.676 154.15 326.676 156.037H323.015C323.015 154.888 322.677 153.801 322 152.776C321.344 151.75 320.37 150.91 319.078 150.253C317.806 149.597 316.248 149.269 314.402 149.269C312.495 149.269 310.946 149.556 309.757 150.13C308.567 150.705 307.696 151.433 307.142 152.314C306.609 153.196 306.342 154.109 306.342 155.052C306.342 155.791 306.455 156.467 306.681 157.083C306.927 157.677 307.357 158.231 307.973 158.744C308.608 159.256 309.511 159.738 310.68 160.189C311.849 160.641 313.366 161.082 315.232 161.512C317.919 162.107 320.113 162.835 321.815 163.696C323.538 164.537 324.81 165.583 325.63 166.834C326.45 168.064 326.86 169.562 326.86 171.325C326.86 172.699 326.573 173.96 325.999 175.109C325.425 176.237 324.594 177.211 323.507 178.031C322.441 178.852 321.149 179.487 319.631 179.938C318.134 180.39 316.453 180.615 314.586 180.615C311.777 180.615 309.398 180.154 307.45 179.231C305.522 178.288 304.056 177.057 303.051 175.54C302.066 174.001 301.574 172.371 301.574 170.648H305.235C305.358 172.371 305.901 173.735 306.865 174.74C307.829 175.724 309.008 176.421 310.403 176.832C311.818 177.242 313.212 177.447 314.586 177.447C316.473 177.447 318.052 177.17 319.324 176.616C320.595 176.062 321.559 175.334 322.215 174.432C322.872 173.53 323.2 172.556 323.2 171.51ZM356.515 172.31V146.716H360.206V180H356.668L356.515 172.31ZM357.191 166.157L359.099 166.096C359.099 168.188 358.853 170.115 358.36 171.879C357.868 173.643 357.099 175.181 356.053 176.493C355.007 177.806 353.654 178.821 351.993 179.539C350.332 180.256 348.332 180.615 345.994 180.615C344.374 180.615 342.887 180.39 341.534 179.938C340.201 179.467 339.052 178.729 338.088 177.724C337.125 176.719 336.376 175.417 335.843 173.817C335.33 172.217 335.074 170.279 335.074 168.003V146.716H338.734V168.064C338.734 169.849 338.929 171.335 339.319 172.525C339.729 173.714 340.283 174.668 340.98 175.386C341.698 176.104 342.518 176.616 343.441 176.924C344.364 177.231 345.358 177.385 346.425 177.385C349.132 177.385 351.265 176.862 352.823 175.816C354.402 174.771 355.52 173.396 356.176 171.694C356.853 169.972 357.191 168.126 357.191 166.157ZM373.311 153.606V180H369.619V146.716H373.157L373.311 153.606ZM372.634 161.297L370.85 160.374C370.973 158.405 371.342 156.56 371.957 154.837C372.593 153.114 373.475 151.597 374.603 150.284C375.73 148.972 377.084 147.946 378.663 147.208C380.242 146.47 382.037 146.101 384.046 146.101C385.667 146.101 387.133 146.326 388.445 146.777C389.778 147.208 390.906 147.895 391.829 148.838C392.772 149.761 393.5 150.971 394.013 152.468C394.526 153.965 394.782 155.76 394.782 157.852V180H391.122V157.975C391.122 155.76 390.773 154.027 390.076 152.776C389.399 151.525 388.445 150.633 387.215 150.1C386.005 149.566 384.6 149.3 383 149.3C381.114 149.3 379.514 149.689 378.202 150.469C376.91 151.228 375.854 152.222 375.033 153.453C374.233 154.663 373.639 155.965 373.249 157.359C372.859 158.733 372.654 160.046 372.634 161.297ZM394.751 158.405L392.291 158.467C392.393 156.847 392.762 155.298 393.398 153.822C394.054 152.345 394.946 151.033 396.074 149.884C397.202 148.715 398.545 147.792 400.104 147.116C401.683 146.439 403.457 146.101 405.426 146.101C407.148 146.101 408.687 146.336 410.04 146.808C411.394 147.259 412.532 147.987 413.455 148.992C414.398 149.977 415.116 151.238 415.608 152.776C416.1 154.314 416.346 156.16 416.346 158.313V180H412.655V158.282C412.655 155.924 412.306 154.099 411.609 152.807C410.932 151.494 409.989 150.582 408.779 150.069C407.569 149.556 406.154 149.3 404.534 149.3C402.934 149.32 401.529 149.618 400.319 150.192C399.109 150.746 398.094 151.484 397.274 152.407C396.474 153.309 395.859 154.283 395.428 155.329C395.018 156.375 394.792 157.4 394.751 158.405ZM438.556 180.615C436.382 180.615 434.383 180.215 432.558 179.416C430.753 178.616 429.174 177.488 427.82 176.032C426.487 174.576 425.452 172.853 424.713 170.864C423.996 168.854 423.637 166.66 423.637 164.281V162.958C423.637 160.395 424.016 158.077 424.775 156.006C425.534 153.935 426.58 152.161 427.913 150.684C429.246 149.208 430.763 148.08 432.465 147.3C434.188 146.5 435.993 146.101 437.879 146.101C439.992 146.101 441.868 146.48 443.509 147.239C445.149 147.977 446.523 149.033 447.631 150.407C448.759 151.761 449.61 153.371 450.184 155.237C450.758 157.083 451.045 159.123 451.045 161.358V163.604H425.852V160.466H447.385V160.036C447.344 158.169 446.964 156.426 446.247 154.806C445.549 153.166 444.503 151.833 443.109 150.807C441.714 149.782 439.971 149.269 437.879 149.269C436.321 149.269 434.885 149.597 433.573 150.253C432.281 150.91 431.163 151.853 430.22 153.083C429.297 154.293 428.579 155.739 428.066 157.421C427.574 159.082 427.328 160.928 427.328 162.958V164.281C427.328 166.126 427.595 167.849 428.128 169.449C428.682 171.028 429.461 172.422 430.466 173.632C431.491 174.842 432.701 175.786 434.096 176.462C435.49 177.139 437.028 177.478 438.71 177.478C440.679 177.478 442.422 177.119 443.939 176.401C445.457 175.663 446.821 174.504 448.031 172.925L450.338 174.709C449.62 175.775 448.718 176.76 447.631 177.662C446.564 178.564 445.283 179.282 443.786 179.815C442.289 180.349 440.545 180.615 438.556 180.615ZM461.966 152.222V180H458.305V146.716H461.874L461.966 152.222ZM473.748 146.47L473.655 149.854C473.245 149.792 472.845 149.741 472.456 149.7C472.066 149.659 471.646 149.638 471.194 149.638C469.595 149.638 468.19 149.936 466.98 150.53C465.791 151.104 464.786 151.915 463.965 152.96C463.145 153.986 462.52 155.196 462.089 156.59C461.658 157.964 461.412 159.441 461.351 161.02L459.997 161.543C459.997 159.369 460.223 157.349 460.674 155.483C461.125 153.617 461.812 151.986 462.735 150.592C463.678 149.177 464.857 148.08 466.272 147.3C467.708 146.5 469.39 146.101 471.317 146.101C471.789 146.101 472.25 146.142 472.702 146.224C473.173 146.285 473.522 146.367 473.748 146.47ZM514.845 171.51C514.845 170.607 514.62 169.715 514.168 168.833C513.717 167.952 512.846 167.142 511.554 166.403C510.282 165.665 508.406 165.04 505.924 164.527C504.079 164.117 502.428 163.655 500.972 163.143C499.536 162.63 498.326 162.015 497.342 161.297C496.357 160.579 495.609 159.718 495.096 158.713C494.583 157.708 494.327 156.519 494.327 155.145C494.327 153.914 494.594 152.755 495.127 151.668C495.681 150.561 496.46 149.597 497.465 148.777C498.49 147.936 499.721 147.28 501.156 146.808C502.612 146.336 504.243 146.101 506.047 146.101C508.611 146.101 510.805 146.542 512.63 147.423C514.476 148.285 515.881 149.464 516.845 150.961C517.829 152.458 518.321 154.15 518.321 156.037H514.661C514.661 154.888 514.322 153.801 513.646 152.776C512.989 151.75 512.015 150.91 510.723 150.253C509.452 149.597 507.893 149.269 506.047 149.269C504.14 149.269 502.592 149.556 501.402 150.13C500.213 150.705 499.341 151.433 498.788 152.314C498.254 153.196 497.988 154.109 497.988 155.052C497.988 155.791 498.101 156.467 498.326 157.083C498.572 157.677 499.003 158.231 499.618 158.744C500.254 159.256 501.156 159.738 502.325 160.189C503.494 160.641 505.012 161.082 506.878 161.512C509.564 162.107 511.759 162.835 513.461 163.696C515.184 164.537 516.455 165.583 517.275 166.834C518.096 168.064 518.506 169.562 518.506 171.325C518.506 172.699 518.219 173.96 517.645 175.109C517.07 176.237 516.24 177.211 515.153 178.031C514.086 178.852 512.794 179.487 511.277 179.938C509.78 180.39 508.098 180.615 506.232 180.615C503.422 180.615 501.043 180.154 499.095 179.231C497.167 178.288 495.701 177.057 494.696 175.54C493.712 174.001 493.22 172.371 493.22 170.648H496.88C497.003 172.371 497.547 173.735 498.511 174.74C499.475 175.724 500.654 176.421 502.048 176.832C503.463 177.242 504.858 177.447 506.232 177.447C508.119 177.447 509.698 177.17 510.969 176.616C512.241 176.062 513.205 175.334 513.861 174.432C514.517 173.53 514.845 172.556 514.845 171.51ZM539.701 180.615C537.527 180.615 535.527 180.215 533.702 179.416C531.897 178.616 530.318 177.488 528.965 176.032C527.632 174.576 526.596 172.853 525.858 170.864C525.14 168.854 524.781 166.66 524.781 164.281V162.958C524.781 160.395 525.161 158.077 525.919 156.006C526.678 153.935 527.724 152.161 529.057 150.684C530.39 149.208 531.908 148.08 533.61 147.3C535.333 146.5 537.137 146.101 539.024 146.101C541.136 146.101 543.013 146.48 544.653 147.239C546.294 147.977 547.668 149.033 548.775 150.407C549.903 151.761 550.754 153.371 551.329 155.237C551.903 157.083 552.19 159.123 552.19 161.358V163.604H526.996V160.466H548.529V160.036C548.488 158.169 548.109 156.426 547.391 154.806C546.694 153.166 545.648 151.833 544.253 150.807C542.859 149.782 541.116 149.269 539.024 149.269C537.465 149.269 536.03 149.597 534.717 150.253C533.425 150.91 532.308 151.853 531.364 153.083C530.441 154.293 529.724 155.739 529.211 157.421C528.719 159.082 528.473 160.928 528.473 162.958V164.281C528.473 166.126 528.739 167.849 529.272 169.449C529.826 171.028 530.605 172.422 531.61 173.632C532.636 174.842 533.846 175.786 535.24 176.462C536.635 177.139 538.173 177.478 539.854 177.478C541.823 177.478 543.566 177.119 545.084 176.401C546.602 175.663 547.965 174.504 549.175 172.925L551.482 174.709C550.765 175.775 549.862 176.76 548.775 177.662C547.709 178.564 546.427 179.282 544.93 179.815C543.433 180.349 541.69 180.615 539.701 180.615ZM563.11 152.222V180H559.45V146.716H563.018L563.11 152.222ZM574.892 146.47L574.8 149.854C574.39 149.792 573.99 149.741 573.6 149.7C573.21 149.659 572.79 149.638 572.339 149.638C570.739 149.638 569.334 149.936 568.125 150.53C566.935 151.104 565.93 151.915 565.11 152.96C564.29 153.986 563.664 155.196 563.233 156.59C562.803 157.964 562.557 159.441 562.495 161.02L561.142 161.543C561.142 159.369 561.367 157.349 561.818 155.483C562.27 153.617 562.957 151.986 563.879 150.592C564.823 149.177 566.002 148.08 567.417 147.3C568.853 146.5 570.534 146.101 572.462 146.101C572.934 146.101 573.395 146.142 573.846 146.224C574.318 146.285 574.667 146.367 574.892 146.47ZM591.042 176.462L601.716 146.716H605.5L593.042 180H590.365L591.042 176.462ZM581.383 146.716L592.18 176.555L592.765 180H590.058L577.568 146.716H581.383ZM615.651 146.716V180H611.991V146.716H615.651ZM611.345 137.087C611.345 136.39 611.56 135.806 611.991 135.334C612.442 134.842 613.057 134.596 613.836 134.596C614.616 134.596 615.231 134.842 615.682 135.334C616.154 135.806 616.39 136.39 616.39 137.087C616.39 137.764 616.154 138.349 615.682 138.841C615.231 139.312 614.616 139.548 613.836 139.548C613.057 139.548 612.442 139.312 611.991 138.841C611.56 138.349 611.345 137.764 611.345 137.087ZM637.984 177.447C639.543 177.447 640.999 177.16 642.353 176.585C643.727 175.991 644.854 175.119 645.736 173.971C646.639 172.802 647.151 171.376 647.274 169.695H650.781C650.679 171.807 650.033 173.694 648.843 175.355C647.674 176.996 646.136 178.288 644.229 179.231C642.342 180.154 640.261 180.615 637.984 180.615C635.667 180.615 633.616 180.195 631.832 179.354C630.068 178.513 628.592 177.344 627.402 175.847C626.213 174.33 625.311 172.566 624.695 170.556C624.101 168.526 623.803 166.342 623.803 164.004V162.712C623.803 160.374 624.101 158.2 624.695 156.19C625.311 154.16 626.213 152.396 627.402 150.899C628.592 149.382 630.068 148.203 631.832 147.362C633.596 146.521 635.636 146.101 637.954 146.101C640.333 146.101 642.465 146.583 644.352 147.546C646.259 148.51 647.777 149.874 648.905 151.638C650.053 153.401 650.679 155.493 650.781 157.913H647.274C647.172 156.129 646.7 154.591 645.859 153.299C645.019 152.007 643.911 151.012 642.537 150.315C641.163 149.618 639.635 149.269 637.954 149.269C636.067 149.269 634.457 149.638 633.124 150.376C631.791 151.094 630.704 152.089 629.863 153.36C629.043 154.611 628.438 156.047 628.048 157.667C627.659 159.267 627.464 160.948 627.464 162.712V164.004C627.464 165.788 627.648 167.49 628.018 169.11C628.407 170.71 629.012 172.135 629.833 173.386C630.673 174.637 631.76 175.632 633.093 176.37C634.447 177.088 636.077 177.447 637.984 177.447ZM671.053 180.615C668.879 180.615 666.88 180.215 665.055 179.416C663.25 178.616 661.671 177.488 660.317 176.032C658.984 174.576 657.949 172.853 657.21 170.864C656.493 168.854 656.134 166.66 656.134 164.281V162.958C656.134 160.395 656.513 158.077 657.272 156.006C658.031 153.935 659.077 152.161 660.41 150.684C661.743 149.208 663.26 148.08 664.962 147.3C666.685 146.5 668.49 146.101 670.376 146.101C672.489 146.101 674.365 146.48 676.006 147.239C677.646 147.977 679.021 149.033 680.128 150.407C681.256 151.761 682.107 153.371 682.681 155.237C683.255 157.083 683.542 159.123 683.542 161.358V163.604H658.349V160.466H679.882V160.036C679.841 158.169 679.461 156.426 678.744 154.806C678.046 153.166 677 151.833 675.606 150.807C674.211 149.782 672.468 149.269 670.376 149.269C668.818 149.269 667.382 149.597 666.07 150.253C664.778 150.91 663.66 151.853 662.717 153.083C661.794 154.293 661.076 155.739 660.563 157.421C660.071 159.082 659.825 160.928 659.825 162.958V164.281C659.825 166.126 660.092 167.849 660.625 169.449C661.179 171.028 661.958 172.422 662.963 173.632C663.988 174.842 665.198 175.786 666.593 176.462C667.987 177.139 669.525 177.478 671.207 177.478C673.176 177.478 674.919 177.119 676.437 176.401C677.954 175.663 679.318 174.504 680.528 172.925L682.835 174.709C682.117 175.775 681.215 176.76 680.128 177.662C679.062 178.564 677.78 179.282 676.283 179.815C674.786 180.349 673.042 180.615 671.053 180.615ZM718.457 177.447C720.016 177.447 721.472 177.16 722.825 176.585C724.199 175.991 725.327 175.119 726.209 173.971C727.111 172.802 727.624 171.376 727.747 169.695H731.254C731.151 171.807 730.505 173.694 729.316 175.355C728.147 176.996 726.609 178.288 724.702 179.231C722.815 180.154 720.733 180.615 718.457 180.615C716.14 180.615 714.089 180.195 712.305 179.354C710.541 178.513 709.064 177.344 707.875 175.847C706.686 174.33 705.783 172.566 705.168 170.556C704.573 168.526 704.276 166.342 704.276 164.004V162.712C704.276 160.374 704.573 158.2 705.168 156.19C705.783 154.16 706.686 152.396 707.875 150.899C709.064 149.382 710.541 148.203 712.305 147.362C714.068 146.521 716.109 146.101 718.426 146.101C720.805 146.101 722.938 146.583 724.825 147.546C726.732 148.51 728.25 149.874 729.377 151.638C730.526 153.401 731.151 155.493 731.254 157.913H727.747C727.645 156.129 727.173 154.591 726.332 153.299C725.491 152.007 724.384 151.012 723.01 150.315C721.636 149.618 720.108 149.269 718.426 149.269C716.54 149.269 714.93 149.638 713.597 150.376C712.264 151.094 711.177 152.089 710.336 153.36C709.516 154.611 708.911 156.047 708.521 157.667C708.131 159.267 707.937 160.948 707.937 162.712V164.004C707.937 165.788 708.121 167.49 708.49 169.11C708.88 170.71 709.485 172.135 710.305 173.386C711.146 174.637 712.233 175.632 713.566 176.37C714.919 177.088 716.55 177.447 718.457 177.447ZM751.526 180.615C749.352 180.615 747.353 180.215 745.527 179.416C743.723 178.616 742.144 177.488 740.79 176.032C739.457 174.576 738.421 172.853 737.683 170.864C736.965 168.854 736.606 166.66 736.606 164.281V162.958C736.606 160.395 736.986 158.077 737.745 156.006C738.503 153.935 739.549 152.161 740.882 150.684C742.215 149.208 743.733 148.08 745.435 147.3C747.158 146.5 748.962 146.101 750.849 146.101C752.961 146.101 754.838 146.48 756.479 147.239C758.119 147.977 759.493 149.033 760.601 150.407C761.729 151.761 762.58 153.371 763.154 155.237C763.728 157.083 764.015 159.123 764.015 161.358V163.604H738.821V160.466H760.354V160.036C760.313 158.169 759.934 156.426 759.216 154.806C758.519 153.166 757.473 151.833 756.079 150.807C754.684 149.782 752.941 149.269 750.849 149.269C749.291 149.269 747.855 149.597 746.542 150.253C745.25 150.91 744.133 151.853 743.189 153.083C742.267 154.293 741.549 155.739 741.036 157.421C740.544 159.082 740.298 160.928 740.298 162.958V164.281C740.298 166.126 740.564 167.849 741.098 169.449C741.651 171.028 742.431 172.422 743.436 173.632C744.461 174.842 745.671 175.786 747.065 176.462C748.46 177.139 749.998 177.478 751.68 177.478C753.648 177.478 755.392 177.119 756.909 176.401C758.427 175.663 759.791 174.504 761 172.925L763.308 174.709C762.59 175.775 761.688 176.76 760.601 177.662C759.534 178.564 758.252 179.282 756.755 179.815C755.258 180.349 753.515 180.615 751.526 180.615ZM774.936 153.822V180H771.275V146.716H774.782L774.936 153.822ZM774.105 161.297L772.475 160.374C772.598 158.405 772.998 156.56 773.674 154.837C774.351 153.114 775.264 151.597 776.412 150.284C777.581 148.972 778.945 147.946 780.503 147.208C782.083 146.47 783.826 146.101 785.733 146.101C787.394 146.101 788.881 146.326 790.193 146.777C791.506 147.229 792.624 147.946 793.546 148.931C794.469 149.915 795.167 151.176 795.638 152.714C796.13 154.252 796.376 156.129 796.376 158.344V180H792.685V158.313C792.685 156.016 792.367 154.222 791.731 152.93C791.096 151.617 790.193 150.684 789.024 150.13C787.855 149.577 786.471 149.3 784.872 149.3C783.108 149.3 781.56 149.689 780.227 150.469C778.914 151.228 777.807 152.222 776.904 153.453C776.022 154.663 775.346 155.965 774.874 157.359C774.402 158.733 774.146 160.046 774.105 161.297ZM818.494 146.716V149.73H801.821V146.716H818.494ZM807.943 138.164H811.604V171.91C811.604 173.448 811.809 174.606 812.219 175.386C812.629 176.165 813.162 176.688 813.818 176.955C814.475 177.221 815.182 177.354 815.941 177.354C816.495 177.354 817.028 177.324 817.541 177.262C818.053 177.18 818.515 177.098 818.925 177.016L819.079 180.123C818.627 180.267 818.043 180.379 817.325 180.461C816.607 180.564 815.89 180.615 815.172 180.615C813.757 180.615 812.506 180.359 811.419 179.846C810.332 179.313 809.481 178.411 808.866 177.139C808.25 175.847 807.943 174.094 807.943 171.879V138.164ZM839.074 180.615C836.9 180.615 834.9 180.215 833.075 179.416C831.271 178.616 829.691 177.488 828.338 176.032C827.005 174.576 825.969 172.853 825.231 170.864C824.513 168.854 824.154 166.66 824.154 164.281V162.958C824.154 160.395 824.534 158.077 825.292 156.006C826.051 153.935 827.097 152.161 828.43 150.684C829.763 149.208 831.281 148.08 832.983 147.3C834.706 146.5 836.51 146.101 838.397 146.101C840.509 146.101 842.386 146.48 844.026 147.239C845.667 147.977 847.041 149.033 848.148 150.407C849.276 151.761 850.127 153.371 850.702 155.237C851.276 157.083 851.563 159.123 851.563 161.358V163.604H826.369V160.466H847.902V160.036C847.861 158.169 847.482 156.426 846.764 154.806C846.067 153.166 845.021 151.833 843.626 150.807C842.232 149.782 840.489 149.269 838.397 149.269C836.838 149.269 835.403 149.597 834.09 150.253C832.798 150.91 831.681 151.853 830.737 153.083C829.814 154.293 829.097 155.739 828.584 157.421C828.092 159.082 827.846 160.928 827.846 162.958V164.281C827.846 166.126 828.112 167.849 828.646 169.449C829.199 171.028 829.979 172.422 830.983 173.632C832.009 174.842 833.219 175.786 834.613 176.462C836.008 177.139 837.546 177.478 839.228 177.478C841.196 177.478 842.939 177.119 844.457 176.401C845.975 175.663 847.338 174.504 848.548 172.925L850.855 174.709C850.138 175.775 849.235 176.76 848.148 177.662C847.082 178.564 845.8 179.282 844.303 179.815C842.806 180.349 841.063 180.615 839.074 180.615ZM862.483 152.222V180H858.823V146.716H862.391L862.483 152.222ZM874.265 146.47L874.173 149.854C873.763 149.792 873.363 149.741 872.973 149.7C872.583 149.659 872.163 149.638 871.712 149.638C870.112 149.638 868.708 149.936 867.498 150.53C866.308 151.104 865.303 151.915 864.483 152.96C863.663 153.986 863.037 155.196 862.606 156.59C862.176 157.964 861.93 159.441 861.868 161.02L860.515 161.543C860.515 159.369 860.74 157.349 861.191 155.483C861.643 153.617 862.33 151.986 863.252 150.592C864.196 149.177 865.375 148.08 866.79 147.3C868.226 146.5 869.907 146.101 871.835 146.101C872.307 146.101 872.768 146.142 873.219 146.224C873.691 146.285 874.04 146.367 874.265 146.47Z" fill="black"/>
<path d="M197.789 0.359375H238.731C246.886 0.359375 253.941 1.58008 259.898 4.02148C265.904 6.46289 270.519 10.0762 273.741 14.8613C276.964 19.6465 278.575 25.5547 278.575 32.5859C278.575 38.4453 277.623 43.4258 275.719 47.5273C273.814 51.6289 271.129 55.0225 267.662 57.708C264.244 60.3936 260.24 62.5664 255.65 64.2266L247.887 68.4746H213.023L212.877 49.9443H238.805C242.369 49.9443 245.323 49.3096 247.667 48.04C250.011 46.7705 251.769 44.9883 252.94 42.6934C254.161 40.3496 254.771 37.6152 254.771 34.4902C254.771 31.2676 254.161 28.4844 252.94 26.1406C251.72 23.7969 249.913 22.0146 247.521 20.7939C245.177 19.5244 242.247 18.8896 238.731 18.8896H221.666V107H197.789V0.359375ZM256.822 107L232.872 59.6123L258.067 59.5391L282.384 105.901V107H256.822ZM339.073 20.6475L311.534 107H286.046L325.523 0.359375H341.637L339.073 20.6475ZM361.925 107L334.312 20.6475L331.456 0.359375H347.789L387.413 107H361.925ZM360.753 67.3027V85.7598H305.162V67.3027H360.753ZM407.701 0.359375H427.477L453.111 76.6045L478.673 0.359375H498.448L461.095 107H445.055L407.701 0.359375ZM396.275 0.359375H416.417L420.152 79.3877V107H396.275V0.359375ZM489.732 0.359375H509.947V107H485.997V79.3877L489.732 0.359375Z" fill="#059212"/>
<path d="M589.129 75.8721V0.359375H603.191V75.8721C603.191 82.9033 601.751 88.8359 598.87 93.6699C595.989 98.5039 592.01 102.19 586.932 104.729C581.902 107.22 576.116 108.465 569.573 108.465C563.03 108.465 557.22 107.342 552.142 105.096C547.063 102.85 543.084 99.4316 540.203 94.8418C537.322 90.252 535.882 84.4658 535.882 77.4834H550.018C550.018 81.9756 550.848 85.6621 552.508 88.543C554.168 91.4238 556.463 93.5479 559.393 94.915C562.371 96.2822 565.765 96.9658 569.573 96.9658C573.284 96.9658 576.604 96.1846 579.534 94.6221C582.513 93.0107 584.856 90.6426 586.565 87.5176C588.274 84.3438 589.129 80.4619 589.129 75.8721ZM694.891 95.501V107H638.421V95.501H694.891ZM641.277 0.359375V107H627.142V0.359375H641.277ZM687.42 46.209V57.708H638.421V46.209H687.42ZM694.158 0.359375V11.9316H638.421V0.359375H694.158ZM780.145 95.501V107H723.675V95.501H780.145ZM726.531 0.359375V107H712.396V0.359375H726.531ZM772.674 46.209V57.708H723.675V46.209H772.674ZM779.412 0.359375V11.9316H723.675V0.359375H779.412ZM838.519 0.359375V107H824.603V0.359375H838.519ZM872.796 0.359375V11.9316H790.398V0.359375H872.796Z" fill="black"/>
<rect y="1" width="180" height="180" rx="90" fill="black"/>
<path d="M81.2692 91.3576H104.58C108.125 91.3576 111.115 90.2118 113.549 87.9201C116.02 85.6284 117.256 82.37 117.256 78.1447C117.256 75.0295 115.966 72.2365 113.388 69.7658C110.81 67.2593 107.874 66.006 104.58 66.006H71.3864V135.615H67.5192V62.1389H104.58C108.948 62.1389 112.798 63.7681 116.128 67.0266C119.458 70.2492 121.123 73.9553 121.123 78.1447C121.123 83.301 119.511 87.4367 116.289 90.5519C113.066 93.6672 109.163 95.2248 104.58 95.2248H81.2692V91.3576ZM81.2692 99.092H104.58C110.166 99.092 114.964 97.1405 118.974 93.2375C122.985 89.2987 124.99 84.2678 124.99 78.1447C124.99 72.881 122.931 68.2619 118.813 64.2873C114.731 60.2769 109.987 58.2717 104.58 58.2717H63.652V135.615H59.7848V54.4045H104.58C108.841 54.4045 112.833 55.4966 116.557 57.6808C120.317 59.8651 123.307 62.8013 125.527 66.4894C127.747 70.1418 128.857 74.0269 128.857 78.1447C128.857 85.1988 126.458 91.107 121.66 95.8693C116.897 100.596 111.204 102.959 104.58 102.959H81.2692V99.092ZM81.2692 106.826H104.58C109.593 106.826 114.248 105.591 118.545 103.12C122.841 100.65 126.279 97.2121 128.857 92.8078C131.435 88.3677 132.724 83.48 132.724 78.1447C132.724 73.3107 131.435 68.7811 128.857 64.5558C126.315 60.2948 122.877 56.8931 118.545 54.3508C114.212 51.8085 109.557 50.5373 104.58 50.5373H55.9176V135.615H52.0504V46.6701H104.58C110.201 46.6701 115.483 48.1203 120.424 51.0207C125.366 53.8853 129.287 57.7525 132.187 62.6223C135.123 67.4562 136.591 72.6304 136.591 78.1447C136.591 84.5184 135.213 90.1223 132.456 94.9562C129.734 99.7902 126.028 103.568 121.338 106.289L131.328 135.615H127.246L117.685 108.115C116.253 108.688 115.161 109.082 114.409 109.297L123.379 135.615H119.297L110.542 110.21C110.219 110.282 109.074 110.407 107.104 110.586L115.429 135.615H111.347L103.13 110.694H99.6383L107.48 135.615H103.398L95.5026 110.694H81.2692V106.826ZM79.1208 135.615H75.2536V69.8732H104.58C106.979 69.8732 109.038 70.6968 110.756 72.3439C112.511 73.9553 113.388 75.8889 113.388 78.1447C113.388 84.3752 110.452 87.4904 104.58 87.4904H81.2692V83.6232H104.58C106.119 83.6232 107.319 83.2293 108.178 82.4416C109.074 81.618 109.521 80.1857 109.521 78.1447C109.521 76.8915 109.038 75.853 108.071 75.0295C107.14 74.1701 105.976 73.7404 104.58 73.7404H79.1208V135.615Z" fill="white"/>
</svg>
