<svg width="18" height="19" viewBox="0 0 18 19" fill="none" xmlns="http://www.w3.org/2000/svg">
<path d="M11.5 17.5V10.8333C11.5 10.6123 11.4122 10.4004 11.2559 10.2441C11.0996 10.0878 10.8877 10 10.6667 10H7.33333C7.11232 10 6.90036 10.0878 6.74408 10.2441C6.5878 10.4004 6.5 10.6123 6.5 10.8333V17.5" stroke="white" stroke-width="1.66667" stroke-linecap="round" stroke-linejoin="round"/>
<path d="M1.5 8.33335C1.49994 8.0909 1.55278 7.85137 1.65482 7.63144C1.75687 7.41152 1.90566 7.21651 2.09083 7.06001L7.92417 2.06085C8.22499 1.8066 8.60613 1.66711 9 1.66711C9.39387 1.66711 9.77501 1.8066 10.0758 2.06085L15.9092 7.06001C16.0943 7.21651 16.2431 7.41152 16.3452 7.63144C16.4472 7.85137 16.5001 8.0909 16.5 8.33335V15.8333C16.5 16.2754 16.3244 16.6993 16.0118 17.0119C15.6993 17.3244 15.2754 17.5 14.8333 17.5H3.16667C2.72464 17.5 2.30072 17.3244 1.98816 17.0119C1.67559 16.6993 1.5 16.2754 1.5 15.8333V8.33335Z" stroke="white" stroke-width="1.66667" stroke-linecap="round" stroke-linejoin="round"/>
</svg>
