<svg width="18" height="14" viewBox="0 0 18 14" fill="none" xmlns="http://www.w3.org/2000/svg">
<path d="M1.5 2.83335C1.5 2.39133 1.67559 1.9674 1.98816 1.65484C2.30072 1.34228 2.72464 1.16669 3.16667 1.16669H14.8333C15.2754 1.16669 15.6993 1.34228 16.0118 1.65484C16.3244 1.9674 16.5 2.39133 16.5 2.83335V11.1667C16.5 11.6087 16.3244 12.0326 16.0118 12.3452C15.6993 12.6578 15.2754 12.8334 14.8333 12.8334H3.16667C2.72464 12.8334 2.30072 12.6578 1.98816 12.3452C1.67559 12.0326 1.5 11.6087 1.5 11.1667V2.83335Z" stroke="white" stroke-width="1.66667" stroke-linecap="round" stroke-linejoin="round"/>
<path d="M1.5 2.83337L9 7.83337L16.5 2.83337" stroke="white" stroke-width="1.66667" stroke-linecap="round" stroke-linejoin="round"/>
</svg>
