<svg width="18" height="18" viewBox="0 0 18 18" fill="none" xmlns="http://www.w3.org/2000/svg">
<path d="M12 11.1017C10.0042 13.2017 4.91334 8.15667 6.91667 6.04834C8.14001 4.76084 6.75834 3.29 5.99334 2.2075C4.55751 0.178336 1.40667 2.98 1.50167 4.7625C1.80417 10.3842 7.88501 17.0458 13.7733 16.4642C15.615 16.2825 17.7317 12.9558 15.6192 11.74C14.5625 11.1317 13.1117 9.93167 12 11.1008M10.6667 1.5C12.2138 1.5 13.6975 2.11458 14.7915 3.20855C15.8854 4.30251 16.5 5.78624 16.5 7.33334M10.6667 4.83334C11.3297 4.83334 11.9656 5.09673 12.4344 5.56557C12.9033 6.03441 13.1667 6.6703 13.1667 7.33334" stroke="white" stroke-width="1.25" stroke-linecap="round" stroke-linejoin="round"/>
</svg>
